<svg xmlns="http://www.w3.org/2000/svg" width="698.84" height="133.615" viewBox="0 0 698.84 133.615">
  <g id="logo" transform="translate(-1186.167 -750.463)">
    <g id="text" transform="translate(1338.345 785.22)">
      <path id="Path_116" data-name="Path 116" d="M1299.972,2347.234a21.244,21.244,0,0,1-9.125-6.544,15.313,15.313,0,0,1-3.25-8.858,1.785,1.785,0,0,1,.579-1.291,1.878,1.878,0,0,1,1.378-.579h11.218a3.343,3.343,0,0,1,1.736.4,6.133,6.133,0,0,1,1.38,1.2,9.227,9.227,0,0,0,3.739,3.829,13.481,13.481,0,0,0,6.855,1.512q5.075,0,7.745-1.6a4.894,4.894,0,0,0,2.671-4.363,4.124,4.124,0,0,0-1.379-3.2,12.359,12.359,0,0,0-4.318-2.227,89.037,89.037,0,0,0-8.724-2.225q-10.683-2.226-15.981-6.543t-5.3-12.331a16.383,16.383,0,0,1,3.026-9.7,19.832,19.832,0,0,1,8.636-6.676,33.016,33.016,0,0,1,13.088-2.405,31.394,31.394,0,0,1,13.443,2.672,22.172,22.172,0,0,1,8.681,6.721,14.648,14.648,0,0,1,3.16,7.967,1.824,1.824,0,0,1-1.869,1.87h-11.752a3.667,3.667,0,0,1-1.736-.356,3.383,3.383,0,0,1-1.2-1.157,5.864,5.864,0,0,0-2.894-3.471,13.274,13.274,0,0,0-11.972,0,4.707,4.707,0,0,0-2.137,4.184,4.3,4.3,0,0,0,1.2,3.115,10.669,10.669,0,0,0,3.916,2.271,56.214,56.214,0,0,0,7.791,2.092,56.94,56.94,0,0,1,13.219,3.784,16.746,16.746,0,0,1,6.144,25.283,21.6,21.6,0,0,1-9.527,6.766,38.454,38.454,0,0,1-13.932,2.359A38.056,38.056,0,0,1,1299.972,2347.234Z" transform="translate(-1287.597 -2285.626)" fill="#e84142"/>
      <path id="Path_117" data-name="Path 117" d="M1329.083,2347.872a2.14,2.14,0,0,1-.668-1.559v-57.865a2.1,2.1,0,0,1,.668-1.6,2.219,2.219,0,0,1,1.559-.622h9.437a3.033,3.033,0,0,1,3.026,1.692l21.723,34.185v-33.651a2.1,2.1,0,0,1,.667-1.6,2.213,2.213,0,0,1,1.557-.622h10.684a2.132,2.132,0,0,1,2.225,2.226v57.777a2.328,2.328,0,0,1-.623,1.647,2.1,2.1,0,0,1-1.6.668h-9.527a3.184,3.184,0,0,1-2.938-1.693l-21.721-32.94v32.405a2.213,2.213,0,0,1-.624,1.559,2.1,2.1,0,0,1-1.6.668h-10.682A2.142,2.142,0,0,1,1329.083,2347.872Z" transform="translate(-1267.175 -2285.329)" fill="#e84142"/>
      <path id="Path_118" data-name="Path 118" d="M1376.611,2343.584q-7.21-6.145-7.656-18.073-.09-2.581-.089-7.656,0-5.162.089-7.744.443-11.753,7.79-18.118t19.63-6.366q12.285,0,19.675,6.366t7.745,18.118q.177,5.162.178,7.744,0,2.494-.178,7.656-.445,11.933-7.656,18.073t-19.764,6.142Q1383.821,2349.726,1376.611,2343.584Zm27.554-9.616q2.892-2.936,3.073-8.991.176-5.163.177-7.3,0-2.316-.177-7.3-.18-6.053-3.116-8.993a10.479,10.479,0,0,0-7.746-2.937,10.319,10.319,0,0,0-7.7,2.938q-2.9,2.939-3.161,8.993-.09,2.492-.089,7.3,0,4.719.089,7.3.268,6.053,3.116,8.991a10.28,10.28,0,0,0,7.745,2.938A10.434,10.434,0,0,0,1404.164,2333.968Z" transform="translate(-1246.937 -2285.626)" fill="#e84142"/>
      <path id="Path_119" data-name="Path 119" d="M1419.613,2347.693a3.47,3.47,0,0,1-1.068-2.093l-9.7-56.888a1.942,1.942,0,0,1-.09-.623,1.987,1.987,0,0,1,1.87-1.869h11.039q2.491,0,2.761,1.959l5.787,34.719,6.409-20.477q.979-2.4,2.938-2.4h6.411a2.9,2.9,0,0,1,2.938,2.4l6.409,20.477,5.787-34.719q.268-1.957,2.761-1.959H1474.9a1.886,1.886,0,0,1,1.38.578,1.79,1.79,0,0,1,.579,1.291l-.09.623-9.7,56.888a3.383,3.383,0,0,1-3.472,2.94h-8.459a3.228,3.228,0,0,1-2.225-.713,4.244,4.244,0,0,1-1.158-1.6l-8.992-25.462-8.991,25.462a3.185,3.185,0,0,1-3.293,2.315h-8.459A3.337,3.337,0,0,1,1419.613,2347.693Z" transform="translate(-1226.98 -2285.329)" fill="#e84142"/>
      <path id="Path_120" data-name="Path 120" d="M1476.546,2347.872a2.141,2.141,0,0,1-.668-1.559V2300.2h-15.846a2.28,2.28,0,0,1-2.225-2.225v-9.525a2.1,2.1,0,0,1,.667-1.6,2.216,2.216,0,0,1,1.557-.622h47.9a2.134,2.134,0,0,1,2.226,2.226v9.525a2.135,2.135,0,0,1-2.226,2.225h-15.847v46.115a2.215,2.215,0,0,1-.624,1.559,2.1,2.1,0,0,1-1.6.668h-11.752A2.142,2.142,0,0,1,1476.546,2347.872Z" transform="translate(-1202.437 -2285.329)" fill="#e84142"/>
      <path id="Path_121" data-name="Path 121" d="M1497.981,2347.872a2.141,2.141,0,0,1-.668-1.559v-57.865a2.1,2.1,0,0,1,.668-1.6,2.219,2.219,0,0,1,1.559-.622h24.215q11.662,0,18.205,5.3t6.544,15a18.518,18.518,0,0,1-2.938,10.594,18.762,18.762,0,0,1-8.1,6.678l12.2,21.9a2.207,2.207,0,0,1,.267.98,1.986,1.986,0,0,1-1.869,1.87h-11.84a3.721,3.721,0,0,1-3.65-2.4l-10.148-19.587h-9.081v19.763a2.089,2.089,0,0,1-.668,1.6,2.316,2.316,0,0,1-1.647.625H1499.54A2.142,2.142,0,0,1,1497.981,2347.872Zm25.6-33.964q4.094,0,6.232-2a7.258,7.258,0,0,0,2.136-5.565,7.641,7.641,0,0,0-2.091-5.651q-2.093-2.091-6.277-2.093h-10.238v15.312Z" transform="translate(-1182.671 -2285.329)" fill="#e84142"/>
      <path id="Path_122" data-name="Path 122" d="M1536.188,2347.96a1.786,1.786,0,0,1-.578-1.291,2.7,2.7,0,0,1,.089-.8l20.922-57.155a3.231,3.231,0,0,1,1.157-1.78,3.582,3.582,0,0,1,2.315-.712h13.176a3.591,3.591,0,0,1,2.315.712,3.247,3.247,0,0,1,1.157,1.78l20.832,57.155.178.8a1.786,1.786,0,0,1-.579,1.291,1.883,1.883,0,0,1-1.38.579h-10.949a2.768,2.768,0,0,1-2.849-1.87l-3.472-9.081h-23.77l-3.383,9.081a2.836,2.836,0,0,1-2.938,1.87h-10.951A1.785,1.785,0,0,1,1536.188,2347.96Zm38.771-23.192-8.279-23.5-8.28,23.5Z" transform="translate(-1163.51 -2285.329)" fill="#e84142"/>
      <path id="Path_123" data-name="Path 123" d="M1586.449,2343.539q-7.167-6.186-7.613-17.938-.09-2.406-.089-7.835,0-5.521.089-8.013.445-11.572,7.746-17.849t19.764-6.278a35.934,35.934,0,0,1,14.066,2.627,23.125,23.125,0,0,1,9.838,7.478,18.964,18.964,0,0,1,3.694,11.351v.178a1.513,1.513,0,0,1-.578,1.2,1.949,1.949,0,0,1-1.292.489h-12.018a2.819,2.819,0,0,1-1.781-.489,3.832,3.832,0,0,1-1.068-1.826q-1.247-4.539-3.917-6.364a12.245,12.245,0,0,0-7.033-1.826q-10.505,0-10.861,11.752-.09,2.4-.089,7.389t.089,7.568q.355,11.752,10.861,11.75a12.226,12.226,0,0,0,7.122-1.913,10.218,10.218,0,0,0,3.829-6.277,3.375,3.375,0,0,1,.98-1.825,3,3,0,0,1,1.869-.49h12.018a1.965,1.965,0,0,1,1.38.535,1.494,1.494,0,0,1,.489,1.334,18.955,18.955,0,0,1-3.694,11.352,23.09,23.09,0,0,1-9.838,7.478,35.9,35.9,0,0,1-14.066,2.627Q1593.613,2349.726,1586.449,2343.539Z" transform="translate(-1141.927 -2285.626)" fill="#e84142"/>
      <path id="Path_124" data-name="Path 124" d="M1621.475,2347.872a2.135,2.135,0,0,1-.668-1.559v-57.865a2.1,2.1,0,0,1,.668-1.6,2.213,2.213,0,0,1,1.557-.622h41.575a2.132,2.132,0,0,1,2.225,2.226v8.367a2.22,2.22,0,0,1-.623,1.559,2.093,2.093,0,0,1-1.6.667h-28.4v12.018h26.442a2.1,2.1,0,0,1,1.6.667,2.333,2.333,0,0,1,.622,1.647v7.746a2.216,2.216,0,0,1-.622,1.558,2.1,2.1,0,0,1-1.6.667h-26.442v12.374h29.112a2.134,2.134,0,0,1,2.225,2.225v8.369a2.219,2.219,0,0,1-.623,1.559,2.1,2.1,0,0,1-1.6.668h-42.288A2.137,2.137,0,0,1,1621.475,2347.872Z" transform="translate(-1120.884 -2285.329)" fill="#e84142"/>
    </g>
    <g id="symbol">
      <circle id="Ellipse_13" data-name="Ellipse 13" cx="66.807" cy="66.807" r="66.807" transform="translate(1186.167 750.463)" fill="#e84142"/>
      <g id="Group_56" data-name="Group 56" transform="translate(1215.911 781.247)">
        <path id="Path_137" data-name="Path 137" d="M1250.31,2323.325c.011-.075.023-.151.031-.226s.015-.154.021-.23c.013-.142.021-.285.027-.426,0-.063,0-.125,0-.186,0-.045.006-.089.006-.134,0-.029,0-.055,0-.083,0-.157-.009-.315-.019-.472,0-.035,0-.067-.008-.1l-.007-.078c0-.067-.009-.134-.015-.2-.018-.155-.04-.308-.066-.461l-.009-.048-.023-.126c-.013-.072-.024-.144-.039-.214-.03-.138-.064-.274-.1-.41l-.02-.067-.024-.089c-.026-.089-.048-.177-.077-.264-.036-.113-.078-.226-.12-.34-.018-.05-.039-.1-.058-.148-.041-.1-.078-.207-.122-.308s-.084-.183-.127-.274c-.034-.071-.07-.14-.106-.209-.045-.09-.09-.178-.138-.267-.022-.04-.04-.083-.063-.123s-.053-.077-.077-.117c-.051-.086-.107-.168-.161-.252-.042-.066-.084-.132-.128-.2-.057-.083-.115-.168-.175-.251s-.137-.172-.2-.258c-.035-.041-.065-.084-.1-.125-.078-.093-.155-.186-.236-.276-.062-.067-.128-.13-.19-.2l-.065-.067-.046-.048c-.1-.1-.2-.2-.306-.292-.054-.05-.111-.1-.168-.143-.031-.029-.064-.055-.1-.084l-.034-.03c-.12-.1-.241-.194-.366-.286-.054-.039-.111-.077-.167-.116l-.064-.043-.082-.057c-.131-.087-.264-.173-.4-.252-.024-.015-.047-.032-.07-.047-.041-.023-.084-.041-.125-.063l-.156-.085c-.12-.063-.24-.125-.363-.181-.077-.036-.155-.072-.233-.105s-.14-.058-.208-.085c-.1-.039-.192-.078-.291-.113l-.008,0v-31.037h-5.8v8.744l-5.938-5.937-4.1,4.1,10.038,10.037v14.093l-.012,0c-.1.036-.192.074-.288.113-.069.028-.138.054-.207.084s-.156.071-.234.107c-.123.057-.243.118-.363.181-.052.028-.1.056-.154.085s-.084.041-.125.063c-.025.015-.048.033-.073.047-.135.081-.267.165-.4.252l-.081.055-.031.023c-.066.045-.132.088-.2.135-.126.093-.249.191-.371.292l-.033.028-.032.025-.029.024-12.2-7.046-3.674-13.713-5.6,1.5,2.174,8.112-7.574-4.374-2.9,5.022,7.573,4.374-8.111,2.172,1.5,5.6,13.711-3.675,12.2,7.045c-.012.071-.026.141-.038.211-.018.123-.034.246-.048.371-.007.063-.01.126-.016.189-.009.1-.02.2-.024.306-.006.119-.009.239-.009.357,0,.029,0,.056,0,.083s0,.054,0,.083c0,.118,0,.237.009.354s.015.207.024.311c.006.063.009.126.016.189.014.122.029.243.048.365.011.072.026.144.038.216l-12.2,7.046-13.711-3.674-1.5,5.6,8.111,2.174-7.573,4.371,2.9,5.024,7.574-4.374-2.174,8.111,5.6,1.5,3.674-13.712,12.2-7.046.031.026.021.018.045.038c.12.1.24.195.366.286.065.048.132.092.2.138l.022.015c.032.021.062.043.094.065.127.086.258.169.392.247.026.015.048.033.073.047.05.03.1.054.153.082l.119.063.05.027c.078.041.154.083.234.12.122.06.245.114.368.168l.037.017c.077.033.153.061.231.091l.125.047.067.025v14.088l-10.038,10.039,4.1,4.1,5.938-5.938v8.746h5.8v-8.746l5.937,5.938,4.1-4.1-10.037-10.039v-14.088l.066-.025.126-.047c.076-.03.153-.058.229-.091l.041-.018c.121-.052.243-.106.363-.165.081-.039.159-.081.237-.123l.046-.025c.041-.022.081-.043.122-.066s.1-.053.153-.081c.024-.013.046-.031.07-.047.134-.078.264-.16.393-.246l.1-.068.023-.015c.066-.044.132-.088.2-.136.125-.091.246-.187.366-.285l.047-.041.021-.018.03-.024,12.205,7.046,3.674,13.712,5.6-1.5-2.174-8.111,7.573,4.374,2.9-5.024-26.88-15.518C1250.279,2323.535,1250.3,2323.43,1250.31,2323.325Z" transform="translate(-1205.992 -2282.952)" fill="#fff"/>
        <path id="Path_138" data-name="Path 138" d="M1249.554,2316.884a13.994,13.994,0,0,0-12.205-20.83v5.8a8.2,8.2,0,0,1,7.149,12.193Z" transform="translate(-1190.303 -2276.437)" fill="#fff"/>
        <path id="Path_139" data-name="Path 139" d="M1235.117,2282.978v5.8a28.756,28.756,0,0,1,24.616,43.61l4.962,3a34.555,34.555,0,0,0-29.578-52.411Z" transform="translate(-1191.42 -2282.978)" fill="#fff"/>
      </g>
    </g>
  </g>
</svg>