<svg height="257" preserveAspectRatio="xMidYMid" viewBox="0 0 256 257" width="256" xmlns="http://www.w3.org/2000/svg"><path d="m121.239531.47435412c33.019316-2.71855398 56.734003 6.04513812 82.250495 31.54659978 27.548844 27.5324169 45.864188 63.2119109 50.800209 101.2182971 5.491604 42.265993-2.061836 73.806575-25.326644 96.898051-22.246119 22.080391-54.7395 29.363654-98.146007 25.734754l-1.796956-.157655c-36.9625602-3.398491-63.1063549-15.517048-88.4376016-41.17176-27.0575074-27.403083-41.31539661-58.51625-40.55404443-91.172251.37238652-15.987054 4.9011082-29.6124973 13.63496933-42.9814723 5.7257716-8.7644739 11.5407275-15.601512 23.7041651-28.140203l4.059416-4.1580134 4.4747119-4.5355582c28.826775-28.975766 47.8049573-40.81396115 75.3372867-43.08078898zm80.288391 33.50986748c-24.941672-24.92698018-47.856327-33.39502281-80.060634-30.74357033-27.1401684 2.2345399-45.7788226 14.09132593-74.9484267 43.63544843l-2.1101797 2.1410267c-14.2120437 14.4477594-20.8721699 21.8347145-26.7390316 30.3776279l-.8536869 1.2593881-.8282827 1.2528518c-8.46067252 12.9508035-12.82392567 26.0784058-13.18379456 41.5280618-.74247018 31.846111 13.19403406 62.257962 39.75423966 89.157391 25.2669245 25.589569 51.2246089 37.399166 88.4906625 40.513597l1.848627.148387c41.74501 3.210316 72.867735-4.002288 94.110842-25.08714 22.570324-22.402165 29.919185-53.088499 24.529447-94.570482-4.85487-37.3815432-22.88348-72.5024605-50.009782-99.6125874zm-34.543601 59.4060871v13.5590853h-28.797444v77.712852h-14.344596v-77.712852h-28.797444v-13.5590853z" fill="#262627"/></svg>