<?xml version="1.0" encoding="utf-8"?>
<svg version="1.0" width="1831.000000pt" height="434.000000pt" viewBox="49.514 5.158 1780.454 418.527" preserveAspectRatio="xMidYMid meet" xmlns="http://www.w3.org/2000/svg">
  <g transform="translate(0.000000,434.000000) scale(0.100000,-0.100000)" fill="#000000" stroke="none">
    <path d="M12900 3201 c-5 -11 -10 -81 -10 -160 0 -114 3 -142 16 -155 13 -13 43 -16 177 -16 89 0 168 4 175 8 9 7 12 48 10 173 l-3 164 -177 3 c-167 2 -178 1 -188 -17z" style="fill: rgb(255, 255, 255);"/>
    <path d="M10112 3108 c-17 -17 -17 -1699 0 -1716 8 -8 54 -12 139 -12 139 0 145 2 169 59 15 36 22 38 58 12 90 -63 187 -91 315 -91 266 1 502 149 618 386 55 114 72 202 66 344 -4 94 -10 129 -35 196 -66 182 -198 324 -368 400 -68 30 -218 64 -284 64 -70 0 -179 -27 -246 -60 -34 -16 -64 -30 -68 -30 -3 0 -6 98 -6 218 0 156 -3 221 -12 230 -17 17 -329 17 -346 0z m803 -752 c101 -46 161 -124 185 -239 15 -77 6 -148 -31 -224 -54 -112 -156 -173 -289 -173 -132 0 -242 66 -297 178 -25 51 -28 68 -28 152 1 75 5 105 22 142 42 91 129 162 230 188 56 14 149 3 208 -24z" style="fill: rgb(255, 255, 255);"/>
    <path d="M14532 3108 c-9 -9 -12 -74 -12 -230 0 -137 -4 -218 -10 -218 -5 0 -36 13 -67 30 -32 16 -97 37 -146 46 -76 15 -101 16 -178 6 -165 -22 -308 -91 -417 -201 -211 -212 -260 -524 -126 -799 40 -82 60 -109 133 -182 64 -63 106 -94 161 -122 131 -64 170 -73 320 -73 153 0 205 13 292 71 28 19 55 37 59 40 5 3 16 -13 25 -36 9 -22 25 -45 35 -50 27 -15 262 -13 277 2 17 17 17 1699 0 1716 -17 17 -329 17 -346 0z m-202 -744 c147 -62 232 -223 200 -381 -7 -32 -19 -71 -27 -87 -25 -48 -95 -116 -148 -144 -44 -24 -61 -27 -150 -27 -86 0 -107 3 -149 24 -61 30 -117 87 -148 149 -20 40 -23 62 -23 152 0 95 3 110 28 157 48 92 126 153 220 173 53 11 150 3 197 -16z" style="fill: rgb(255, 255, 255);"/>
    <path d="M6810 3039 c-101 -20 -149 -34 -157 -46 -9 -11 -13 -58 -13 -145 l0 -128 -63 0 c-36 0 -68 -5 -75 -12 -8 -8 -12 -59 -12 -165 0 -176 -1 -173 94 -173 l56 0 0 -476 c0 -308 4 -482 10 -495 10 -18 23 -19 180 -19 157 0 170 1 180 19 6 13 10 187 10 495 l0 476 108 0 c71 0 114 4 125 13 16 11 17 30 15 172 l-3 160 -120 5 -120 5 -2 150 c-2 83 -5 160 -8 173 -7 28 -20 28 -205 -9z" style="fill: rgb(255, 255, 255);"/>
    <path d="M7885 2735 c-250 -47 -440 -227 -516 -490 -34 -120 -32 -288 6 -405 31 -98 61 -153 120 -227 96 -119 239 -207 383 -238 92 -19 228 -19 325 -1 125 24 307 122 307 165 0 24 -151 235 -171 239 -9 2 -38 -11 -65 -27 -150 -93 -349 -75 -463 41 -32 32 -71 97 -71 118 0 7 148 10 459 10 409 0 460 2 472 16 19 23 23 127 10 227 -14 105 -49 210 -96 286 -46 77 -160 183 -236 222 -131 65 -317 91 -464 64z m270 -339 c72 -33 155 -133 155 -186 0 -7 -97 -10 -290 -10 -159 0 -290 2 -290 4 0 2 7 20 15 40 23 55 93 126 150 152 71 33 189 33 260 0z" style="fill: rgb(255, 255, 255);"/>
    <path d="M9521 2735 c-86 -25 -123 -46 -184 -107 l-57 -59 -31 68 c-17 37 -36 71 -42 75 -21 13 -272 9 -285 -4 -16 -16 -17 -1279 -2 -1309 10 -18 23 -19 180 -19 124 0 171 3 177 13 4 6 10 183 13 392 l5 380 33 67 c72 147 208 198 357 135 35 -15 66 -22 74 -17 22 12 150 252 151 282 0 23 -8 32 -42 49 -118 60 -251 81 -347 54z" style="fill: rgb(255, 255, 255);"/>
    <path d="M12325 2736 c-78 -19 -142 -55 -196 -113 l-50 -53 -28 60 c-45 94 -36 90 -185 90 -89 0 -136 -4 -144 -12 -17 -17 -17 -1299 0 -1316 13 -13 311 -18 342 -6 14 5 16 42 16 313 0 168 5 346 10 394 28 240 197 358 395 274 32 -13 64 -23 71 -20 12 4 126 208 146 261 9 24 9 34 -2 47 -21 26 -85 54 -167 76 -86 21 -135 23 -208 5z" style="fill: rgb(255, 255, 255);"/>
    <path d="M15648 2734 c-149 -27 -259 -85 -355 -188 -117 -124 -173 -276 -173 -466 0 -205 51 -333 185 -467 65 -66 99 -91 166 -123 138 -66 296 -88 405 -55 28 8 88 37 133 65 l84 50 -7 -47 c-12 -92 -89 -166 -206 -200 -97 -28 -289 1 -412 63 -81 41 -81 41 -154 -112 -36 -75 -64 -143 -62 -152 6 -32 144 -96 288 -134 107 -28 330 -35 430 -14 221 46 409 225 476 451 16 54 18 121 21 673 3 459 1 617 -8 628 -9 11 -42 14 -144 14 -144 0 -147 -1 -173 -63 -7 -16 -16 -27 -20 -25 -4 2 -45 22 -92 45 -86 43 -200 74 -268 72 -20 0 -72 -7 -114 -15z m299 -372 c68 -35 108 -77 139 -144 37 -82 39 -187 5 -263 -58 -132 -199 -204 -343 -176 -160 32 -258 145 -258 301 0 138 77 248 209 297 55 21 195 12 248 -15z" style="fill: rgb(255, 255, 255);"/>
    <path d="M17245 2736 c-133 -26 -234 -76 -324 -160 -148 -140 -221 -314 -221 -527 0 -195 63 -352 195 -485 89 -91 169 -140 285 -176 64 -20 96 -23 220 -23 156 0 214 12 315 62 92 45 145 86 145 111 0 22 -121 204 -154 231 -14 12 -28 7 -99 -28 -154 -77 -322 -63 -431 38 -33 30 -86 109 -86 128 0 10 88 13 458 13 268 0 463 4 472 10 20 13 26 146 10 252 -49 335 -283 545 -630 563 -50 3 -114 -1 -155 -9z m255 -337 c60 -27 117 -83 146 -144 l24 -50 -145 -3 c-79 -1 -212 -1 -295 0 l-151 3 26 50 c31 63 78 109 141 141 66 32 187 33 254 3z" style="fill: rgb(255, 255, 255);"/>
    <path d="M5004 2707 c-3 -8 -4 -216 -2 -463 4 -448 4 -449 28 -520 69 -195 205 -319 388 -355 93 -18 231 -7 316 25 72 27 175 85 196 111 19 23 25 19 50 -37 41 -91 35 -88 186 -88 122 0 134 2 144 19 6 13 10 237 10 659 0 532 -2 641 -14 651 -9 8 -66 11 -182 9 l-169 -3 -5 -390 c-5 -372 -6 -392 -26 -436 -30 -64 -88 -126 -148 -157 -43 -22 -64 -26 -136 -27 -75 0 -90 3 -132 28 -49 28 -95 86 -118 147 -10 26 -15 136 -19 435 l-6 400 -178 3 c-144 2 -178 0 -183 -11z" style="fill: rgb(255, 255, 255);"/>
    <path d="M12907 2714 c-4 -4 -7 -300 -7 -659 0 -493 3 -654 12 -663 18 -18 332 -17 347 2 8 9 10 192 9 667 l-3 654 -176 3 c-96 1 -178 -1 -182 -4z" style="fill: rgb(255, 255, 255);"/>
  </g>
  <ellipse style="stroke-width: 100px; stroke: rgb(216, 188, 255); fill: rgba(255, 255, 255, 0);" cx="275.335" cy="213.956" rx="150" ry="150"/>
</svg>