<svg id="Capa_1" enable-background="new 0 0 512 512" height="512" viewBox="0 0 512 512" width="512" xmlns="http://www.w3.org/2000/svg"><g><g><g><circle cx="256" cy="256" fill="#dcf5ff" r="235.551"/></g><g><path d="m370.282 49.999c42.973 42.672 69.587 101.796 69.587 167.141 0 130.091-105.46 235.551-235.551 235.551-41.473 0-80.434-10.732-114.282-29.55 42.579 42.281 101.218 68.41 165.964 68.41 130.091 0 235.551-105.46 235.551-235.551 0-88.618-48.946-165.792-121.269-206.001z" fill="#97e4f9"/></g><g><g><path d="m256 512c-68.38 0-132.667-26.629-181.019-74.981s-74.981-112.639-74.981-181.019 26.629-132.667 74.981-181.019 112.639-74.981 181.019-74.981 132.667 26.629 181.019 74.981 74.981 112.639 74.981 181.019-26.629 132.667-74.981 181.019-112.639 74.981-181.019 74.981zm0-471.101c-118.607 0-215.101 96.493-215.101 215.101s96.494 215.101 215.101 215.101 215.101-96.493 215.101-215.101-96.494-215.101-215.101-215.101z" fill="#0acefa"/></g></g><g><g><path d="m437.019 74.981c-3.936-3.936-7.989-7.713-12.13-11.358 41.138 46.727 63.623 106.077 63.623 168.891 0 68.38-26.629 132.667-74.981 181.019s-112.639 74.981-181.019 74.981c-62.814 0-122.163-22.485-168.89-63.622 3.645 4.141 7.421 8.192 11.357 12.128 48.354 48.351 112.641 74.98 181.021 74.98s132.667-26.629 181.019-74.981 74.981-112.639 74.981-181.019-26.629-132.667-74.981-181.019z" fill="#09a6ee"/></g></g></g><g><g><path d="m253.034 358.57-83.751-58.684c-.936-.656-2.087.469-1.453 1.42l83.87 125.794c2.046 3.068 6.555 3.068 8.601 0l83.87-125.794c.634-.951-.517-2.076-1.453-1.42l-83.751 58.684c-1.782 1.247-4.152 1.247-5.933 0z" fill="#b1abb5"/></g><g><path d="m355.137 248.065-94.616-170.823c-1.968-3.552-7.075-3.552-9.043 0l-94.616 170.823z" fill="#b1abb5"/></g><g><path d="m256 248.065h99.136l-94.615-170.823c-.984-1.776-2.753-2.664-4.521-2.664z" fill="#786e79"/></g><g><path d="m253.034 321.023-94.603-66.288c-2.937-2.058-2.937-6.408 0-8.466l94.603-66.288c1.78-1.248 4.151-1.248 5.932 0l94.603 66.288c2.937 2.058 2.937 6.408 0 8.466l-94.603 66.288c-1.781 1.248-4.152 1.248-5.932 0z" fill="#786e79"/></g><g><path d="m258.966 321.023 94.603-66.288c2.937-2.058 2.937-6.408 0-8.466l-94.603-66.288c-.89-.624-1.928-.936-2.966-.936v142.913c1.038.001 2.076-.311 2.966-.935z" fill="#554e57"/></g><g><path d="m327.543 240.926c1.533 2.238 1.104 5.451-1.291 7.139h28.884l-94.614-170.823c-.984-1.776-2.753-2.664-4.521-2.664v37.181z" fill="#554e57"/></g><g><path d="m260.3 427.099 83.87-125.794c.634-.951-.517-2.076-1.453-1.42l-83.751 58.684c-.89.624-1.928.936-2.966.936v69.895c1.639.001 3.278-.766 4.3-2.301z" fill="#554e57"/></g><g><path d="m353.569 246.27-37.696-26.413 11.67 21.07c1.536 2.242 1.104 5.464-1.302 7.149l-70.241 49.217v24.667c1.038 0 2.075-.312 2.966-.936l94.603-66.288c2.937-2.058 2.937-6.408 0-8.466z" fill="#453e43"/></g><g><path d="m342.717 299.885-44.239 30.998-42.478 63.712v34.806c1.639 0 3.277-.767 4.3-2.301l83.87-125.794c.635-.952-.517-2.077-1.453-1.421z" fill="#453e43"/></g></g></g></svg>