<svg xmlns="http://www.w3.org/2000/svg" width="33" height="32" viewBox="0 0 33 32" fill="none" class="w-20 h-auto">
<path d="M16.0466 25.5867C10.5396 25.5867 6.08315 21.2056 6.08315 15.7918C6.08315 10.3779 10.5396 5.99688 16.0466 5.99688C23.282 5.99688 28.0096 13.2931 25.2137 19.6731L18.8425 17.6242L27.8402 26.4696C30.4835 23.6544 32.0933 19.9063 32.0933 15.7751C32.0933 7.06299 24.9087 0 16.0466 0C7.18456 0 0 7.06299 0 15.7751C0 24.4872 7.18456 31.5502 16.0466 31.5502C19.1475 31.5502 22.0281 30.684 24.4851 29.2015L31.6188 32L22.6212 23.138C20.8589 24.6538 18.5545 25.5867 16.0466 25.5867Z" fill="#40C6F0"></path>
</svg>