<svg xmlns="http://www.w3.org/2000/svg" width="476.702" height="121.333" viewBox="0 0 476.702 121.333">
  <g id="bscscan-logo-light" transform="translate(-219.378 -213.334)">
    <g id="bscscan-logo-light-circle">
      <g id="Group_3" data-name="Group 3">
        <path id="Path_1" data-name="Path 1" d="M244.6,271.1a5.144,5.144,0,0,1,5.168-5.143l8.568.028a5.151,5.151,0,0,1,5.151,5.151v32.4c.965-.286,2.2-.591,3.559-.911a4.292,4.292,0,0,0,3.309-4.177V258.261a5.152,5.152,0,0,1,5.151-5.152H284.1a5.152,5.152,0,0,1,5.151,5.152v37.3s2.15-.87,4.243-1.754a4.3,4.3,0,0,0,2.625-3.957V245.383a5.151,5.151,0,0,1,5.15-5.151h8.585A5.151,5.151,0,0,1,315,245.383V282c7.443-5.394,14.986-11.882,20.972-19.683a8.646,8.646,0,0,0,1.316-8.072,60.636,60.636,0,1,0-109.855,50.108,7.668,7.668,0,0,0,7.316,3.79c1.624-.143,3.646-.345,6.05-.627a4.29,4.29,0,0,0,3.805-4.258V271.1" fill="#fff"/>
        <path id="Path_2" data-name="Path 2" d="M244.417,323.061A60.656,60.656,0,0,0,340.756,274c0-1.4-.065-2.778-.158-4.152-22.163,33.055-63.085,48.508-96.181,53.213" fill="#f0b90b"/>
      </g>
    </g>
    <path id="Path_88" data-name="Path 88" d="M34.96-29.12a13.978,13.978,0,0,1,8.28,4.88,13.677,13.677,0,0,1,3.16,8.96q0,7.04-4.72,11.16T28,0H5.52V-56.48H27.6q8.48,0,13,3.8t4.52,10.44a13.007,13.007,0,0,1-2.8,8.68A13.57,13.57,0,0,1,34.96-29.12ZM14.64-32.16H25.92q4.8,0,7.32-2.24a7.915,7.915,0,0,0,2.52-6.24,7.818,7.818,0,0,0-2.52-6.16q-2.52-2.24-7.64-2.24H14.64ZM26.16-7.52q5.2,0,8.04-2.36a8.108,8.108,0,0,0,2.84-6.6,8.174,8.174,0,0,0-2.88-6.64q-2.88-2.4-8.08-2.4H14.64v18ZM69.44-44.64q7.76,0,12.44,3.96a16.755,16.755,0,0,1,5.72,10.6H78.96a9.325,9.325,0,0,0-3.08-5.8,9.794,9.794,0,0,0-6.68-2.2,7.84,7.84,0,0,0-5.32,1.64A5.591,5.591,0,0,0,62-32a4.4,4.4,0,0,0,1.36,3.36,9.492,9.492,0,0,0,3.4,2,58.552,58.552,0,0,0,5.8,1.6,57.951,57.951,0,0,1,8.04,2.32,13.026,13.026,0,0,1,5.28,3.8,10.612,10.612,0,0,1,2.2,7.08,11.034,11.034,0,0,1-4.2,8.96Q79.68.56,72.56.56q-8.24,0-13.32-3.84A15.807,15.807,0,0,1,53.12-14H62a8.383,8.383,0,0,0,3.2,5.84,11.429,11.429,0,0,0,7.36,2.24,7.355,7.355,0,0,0,5.16-1.72A5.652,5.652,0,0,0,79.6-12a4.82,4.82,0,0,0-1.44-3.68,9.987,9.987,0,0,0-3.6-2.12,50.009,50.009,0,0,0-5.92-1.56,65.588,65.588,0,0,1-7.8-2.24,12.158,12.158,0,0,1-5.12-3.64,10.289,10.289,0,0,1-2.12-6.84,11.23,11.23,0,0,1,4.2-9.08Q62-44.64,69.44-44.64Zm47.36,0q8.56,0,14.16,4.52a19.494,19.494,0,0,1,6.96,12.28h-9.68a10.349,10.349,0,0,0-3.88-6.52,12.322,12.322,0,0,0-7.72-2.36,11.613,11.613,0,0,0-8.8,3.72q-3.52,3.72-3.52,10.92t3.52,10.96a11.554,11.554,0,0,0,8.8,3.76,12.181,12.181,0,0,0,7.72-2.4,10.513,10.513,0,0,0,3.88-6.56h9.68A19.66,19.66,0,0,1,130.96-4Q125.36.56,116.8.56a23.01,23.01,0,0,1-11.32-2.72A19.346,19.346,0,0,1,97.76-10a24.8,24.8,0,0,1-2.8-12.08,24.627,24.627,0,0,1,2.8-12,19.346,19.346,0,0,1,7.72-7.84A23.01,23.01,0,0,1,116.8-44.64Zm67.04,29.6a15.5,15.5,0,0,1-2,7.72,14.541,14.541,0,0,1-6.08,5.72,21.16,21.16,0,0,1-10,2.16,25.014,25.014,0,0,1-10.32-2.04,17.958,17.958,0,0,1-7.28-5.72,16.239,16.239,0,0,1-3.12-8.48h9.76a10.012,10.012,0,0,0,3.16,6.32,10.259,10.259,0,0,0,7.4,2.64,8.8,8.8,0,0,0,6.44-2.24,7.724,7.724,0,0,0,2.28-5.76,7.411,7.411,0,0,0-1.68-5,11.779,11.779,0,0,0-4.16-3.08q-2.48-1.12-6.8-2.56a59.267,59.267,0,0,1-8.6-3.36,15.64,15.64,0,0,1-5.64-4.88,13.987,13.987,0,0,1-2.32-8.4,14.33,14.33,0,0,1,2.24-8,14.561,14.561,0,0,1,6.4-5.32,23.1,23.1,0,0,1,9.6-1.88q8.64,0,13.72,4.16a15.676,15.676,0,0,1,5.8,10.88H172.8a9.6,9.6,0,0,0-3-5.48,9.4,9.4,0,0,0-6.68-2.28,9.227,9.227,0,0,0-6.16,1.96,6.972,6.972,0,0,0-2.32,5.64,7.088,7.088,0,0,0,1.6,4.76,11.122,11.122,0,0,0,4.04,2.96q2.44,1.08,6.68,2.52a58.688,58.688,0,0,1,8.76,3.4,15.87,15.87,0,0,1,5.76,5A14.472,14.472,0,0,1,183.84-15.04Zm28.72-29.6q8.56,0,14.16,4.52a19.494,19.494,0,0,1,6.96,12.28H224a10.349,10.349,0,0,0-3.88-6.52,12.322,12.322,0,0,0-7.72-2.36A11.613,11.613,0,0,0,203.6-33q-3.52,3.72-3.52,10.92t3.52,10.96a11.554,11.554,0,0,0,8.8,3.76,12.181,12.181,0,0,0,7.72-2.4A10.513,10.513,0,0,0,224-16.32h9.68A19.66,19.66,0,0,1,226.72-4Q221.12.56,212.56.56a23.01,23.01,0,0,1-11.32-2.72A19.346,19.346,0,0,1,193.52-10a24.8,24.8,0,0,1-2.8-12.08,24.627,24.627,0,0,1,2.8-12,19.346,19.346,0,0,1,7.72-7.84A23.01,23.01,0,0,1,212.56-44.64Zm47.6,0a17.438,17.438,0,0,1,10.24,2.96,15.93,15.93,0,0,1,6,7.84V-44.08h9.12V0H276.4V-10.24a15.93,15.93,0,0,1-6,7.84A17.438,17.438,0,0,1,260.16.56a19.545,19.545,0,0,1-10.28-2.72A18.589,18.589,0,0,1,242.8-10a26.711,26.711,0,0,1-2.56-12.08,26.52,26.52,0,0,1,2.56-12,18.589,18.589,0,0,1,7.08-7.84A19.545,19.545,0,0,1,260.16-44.64Zm2.8,8a12.7,12.7,0,0,0-9.72,3.88q-3.64,3.88-3.64,10.68t3.64,10.68a12.7,12.7,0,0,0,9.72,3.88,13.245,13.245,0,0,0,6.88-1.8,12.786,12.786,0,0,0,4.8-5.08,16.007,16.007,0,0,0,1.76-7.68,16.068,16.068,0,0,0-1.76-7.64,12.723,12.723,0,0,0-4.8-5.12A13.245,13.245,0,0,0,262.96-36.64Zm58.16-8.16q7.68,0,12.32,4.96t4.64,14.16V0h-9.12V-24.72q0-5.92-3.04-9.16a10.856,10.856,0,0,0-8.32-3.24,11.419,11.419,0,0,0-8.72,3.48q-3.28,3.48-3.28,10.2V0h-9.12V-44.08h9.12v9.68a14.79,14.79,0,0,1,5.92-7.68A17.145,17.145,0,0,1,321.12-44.8Z" transform="translate(358 302)" fill="#fff"/>
  </g>
</svg>
