<svg width="260" height="260" viewBox="0 0 260 260" fill="none" xmlns="http://www.w3.org/2000/svg">
<path fill-rule="evenodd" clip-rule="evenodd" d="M40.6263 1.3446C32.8575 2.23881 25.6139 5.87316 20.3791 11.5031C17.6726 14.4137 16.4879 16.1793 14.6169 20.0908C12.7979 23.8932 11.8533 27.407 11.366 32.184C10.8777 36.9744 10.878 225.108 11.3667 229.447C11.8719 233.933 12.6023 236.637 14.2836 240.249C16.1026 244.156 17.3351 245.984 20.2375 249.079C24.2864 253.397 30.1146 256.709 36.4122 258.271C39.6276 259.068 47.4646 259.061 50.9401 258.257C62.6895 255.541 71.6774 246.89 75.1256 234.98L75.9249 232.219L76.0159 148.289L76.1068 64.3593L122.851 64.3662L169.595 64.3731L139.535 94.5947C123.002 111.217 109.033 125.44 108.493 126.202C106.132 129.532 104.143 133.948 103.263 137.809C101.214 146.798 103.354 157.066 108.75 164.139C109.695 165.378 129.583 185.592 152.946 209.058C189.629 245.905 195.823 251.984 198.351 253.627C203.671 257.083 208.45 258.658 214.537 258.958C224.002 259.425 232.486 255.983 239.193 248.953C245.048 242.816 247.991 235.487 248 227.022C248.007 220.897 246.749 216.015 243.787 210.67C242.409 208.184 239.78 205.437 211.113 176.525L179.938 145.083L208.554 116.241C224.293 100.378 237.636 86.6972 238.206 85.8397C240.707 82.0716 242.675 77.1547 243.427 72.7921C243.638 71.5656 243.802 59.9204 243.843 43.2253C243.91 15.9586 243.903 15.6589 243.176 13.4048C241.147 7.11591 235.666 2.32681 229.345 1.31931C226.574 0.877571 44.4713 0.901822 40.6263 1.3446Z" fill="white"/>
<path fill-rule="evenodd" clip-rule="evenodd" d="M44.7737 9.00142H227.625C228.881 8.97943 230.129 9.21009 231.294 9.67969C232.458 10.1493 233.517 10.8482 234.407 11.735L189.906 56.0855H68.2099V226.263C68.2099 240.492 57.1943 250.868 43.605 250.868C29.5235 250.868 19 239.855 19 226.263V35.4345C19 20.1696 29.9148 9.00142 44.7737 9.00142ZM229.921 84.4575L169.223 144.927L234.183 209.657C236.43 211.897 238.214 214.557 239.433 217.486C240.651 220.415 241.281 223.555 241.287 226.728C241.292 229.9 240.672 233.042 239.463 235.975C238.254 238.908 236.479 241.574 234.239 243.821C232 246.068 229.34 247.852 226.411 249.071C223.482 250.29 220.342 250.92 217.169 250.925C213.997 250.93 210.854 250.311 207.921 249.102C204.988 247.892 202.322 246.117 200.075 243.878L117.954 162.037C115.703 159.792 113.917 157.125 112.699 154.189C111.48 151.253 110.853 148.105 110.853 144.927C110.853 141.748 111.48 138.6 112.699 135.664C113.917 132.728 115.703 130.061 117.954 127.816L234.407 11.7351C236.06 13.4131 237.062 15.7678 237.128 18.4743L237.025 67.3865C237.024 70.5596 236.396 73.7013 235.177 76.6309C233.957 79.5605 232.172 82.2203 229.921 84.4575Z" fill="#2B6FF4"/>
<path d="M169.223 144.927L229.921 84.4575C232.172 82.2203 233.957 79.5605 235.177 76.6309C236.396 73.7013 237.024 70.5597 237.025 67.3866L237.128 18.4744C237.062 15.7679 236.06 13.4132 234.407 11.7351L117.954 127.816C115.703 130.061 113.917 132.728 112.699 135.664C111.48 138.6 110.853 141.748 110.853 144.927C110.853 148.106 111.48 151.253 112.699 154.189C113.917 157.125 115.703 159.792 117.954 162.037L200.075 243.878C202.322 246.117 204.988 247.892 207.921 249.102C210.854 250.311 213.997 250.93 217.169 250.925C220.342 250.92 223.482 250.29 226.411 249.071C229.34 247.852 232 246.068 234.239 243.821C236.479 241.574 238.254 238.908 239.463 235.975C240.672 233.042 241.292 229.9 241.287 226.728C241.281 223.555 240.651 220.415 239.433 217.486C238.214 214.557 236.43 211.897 234.183 209.657L169.223 144.927Z" fill="#0100C8"/>
<path d="M227.625 9.00144H44.7737C29.9148 9.00144 19 20.1696 19 35.4345V226.263C19 239.855 29.5235 250.868 43.605 250.868C57.1943 250.868 68.2099 240.492 68.2099 226.263V56.0855H189.906L234.407 11.735C233.517 10.8483 232.458 10.1493 231.294 9.6797C230.129 9.21011 228.881 8.97945 227.625 9.00144Z" fill="#2B6FF4"/>
</svg>
