<svg width="85" height="125" viewBox="0 0 85 125" fill="none" xmlns="http://www.w3.org/2000/svg">
<path d="M16.7164 64.0148C16.2692 61.4336 15.714 58.9288 14.4341 56.928C12.6915 54.2093 9.63813 52.3612 3.59309 52.3154L3.50057 55.7214C5.64409 55.6603 7.7105 55.8588 9.45308 56.9585C10.9489 57.8902 12.198 59.4328 13.1541 61.9987C7.89556 60.227 4.9193 60.7616 2.80662 62.1056C1.71173 62.8082 0.848155 63.7399 0 64.6868L2.39026 66.8556C2.52905 66.6571 2.68326 66.4738 2.80662 66.3058C5.36651 63.2969 8.34277 63.3886 11.4887 65.0534C4.68799 68.3066 3.59309 74.0035 3.94778 78.112C4.2562 78.1578 7.29414 78.112 7.29414 78.112C7.00114 74.1104 9.88487 68.7495 15.8682 67.1305L16.7626 65.313L16.7164 64.0148Z" fill="#8000DB"/>
<path d="M61.4989 28.7514C71.5843 14.8986 76.5498 8.02558 72.5712 4.696C69.9342 2.51192 66.372 4.05452 60.6199 8.31577C60.4195 12.8672 59.3092 19.3431 57.8287 27.942L61.4989 28.7514Z" fill="#008298"/>
<path d="M67.8832 111.823H64.1822C64.0897 117.062 64.2284 122.453 58.5844 124.179C58.7694 124.195 58.9699 124.225 59.1858 124.24C59.7872 124.302 60.3732 124.256 60.9438 124.134C67.9603 122.362 67.7753 117.016 67.8832 111.823Z" fill="#580098"/>
<path d="M71.8775 111.821L67.9759 102.672H71.6153L68.5619 94.0273H63.5038L65.8633 102.672H63.0566L66.0637 111.821H67.868H71.8775Z" fill="#98005E"/>
<path d="M58.5843 124.179C64.2284 122.453 64.0897 117.093 64.1822 111.823H50.7813C50.7042 119.628 53.5417 123.431 58.5843 124.179Z" fill="#8000DB"/>
<path d="M63.0411 102.675H65.8323L63.4883 94.0611L49.8561 94L46.6948 102.95L50.1491 103.21L46.6948 111.824H66.079L63.0411 102.675Z" fill="#FF009E"/>
<path d="M34.7745 103.009L31.1659 93.9371L26.1079 93.9219L28.6061 102.826H25.7532L28.8374 112.067L35.2371 112.128L30.7804 102.979L34.7745 103.009Z" fill="#98005E"/>
<path d="M25.7221 102.796H28.575L26.0922 93.8912L12.2596 93.8301L8.91321 103.07L12.4446 103.33L8.91321 112.021L28.7909 112.066L25.7221 102.796Z" fill="#FF009E"/>
<path d="M57.289 0.128401C51.8608 -1.16983 48.6995 7.41376 40.8193 24.1838L57.8287 27.9258C59.2937 19.3269 60.4194 12.8511 60.6199 8.29961C60.8358 3.44271 59.9722 0.800426 57.289 0.128401Z" fill="#00BEDD"/>
<path d="M67.6827 85.2013L72.1702 85.4915L67.3897 76.0373H71.3221L67.7752 67.4385H64.7373H62.1003L65.2924 76.0373H61.7456L66.0481 85.4915L62.0078 85.2013L66.3102 94.0598L72.4478 94.0751L67.6827 85.2013Z" fill="#FF9900"/>
<path d="M72.1701 58.5794L68.87 49.4307H62.4857L65.1998 58.5794H61.2675L64.7218 67.4684H71.5687L67.3588 58.5794H72.1701Z" fill="#008298"/>
<path d="M40.8505 24.1982C40.8196 24.2441 40.8196 24.1982 40.8505 24.1982L33.2942 39.0897L37.4733 39.1813L32.4614 49.4297H68.8242L64.1207 47.4595C63.4114 47.1693 62.9796 46.6042 63.1646 46.2223C63.1801 46.1765 63.2109 46.1612 63.2263 46.1307C63.4422 45.8252 64.0899 45.7794 64.7376 46.0391L64.9381 46.1307L68.2382 47.5206L71.091 48.7119V30.8727L40.8505 24.1982Z" fill="#FFE001"/>
<path d="M59.1396 41.1824C61.4219 41.1824 63.2878 39.3496 63.2878 37.0434C63.2878 34.7676 61.4373 32.9043 59.1396 32.9043C56.8573 32.9043 54.9913 34.7371 54.9913 37.0434C54.9913 39.3496 56.8727 41.1824 59.1396 41.1824ZM59.1396 34.9967C60.2807 34.9967 61.2214 35.9284 61.2214 37.0586C61.2214 38.1889 60.2807 39.1205 59.1396 39.1205C57.9984 39.1205 57.0577 38.1889 57.0577 37.0586C57.0732 35.9284 57.9984 34.9967 59.1396 34.9967Z" fill="white"/>
<path d="M59.2785 39.1053C60.4197 39.0442 61.2832 38.0667 61.2215 36.9212C61.1599 35.791 60.1729 34.9051 59.0163 34.9968C57.8752 35.0578 57.0116 36.0353 57.0733 37.1808C57.135 38.3111 58.1373 39.1816 59.2785 39.1053Z" fill="black"/>
<path d="M71.0601 49.428V48.6949L64.9071 46.0831L64.7067 45.9915C64.059 45.7318 63.4421 45.7777 63.1954 46.0831C63.18 46.0984 63.1491 46.1442 63.1337 46.1748C62.9795 46.5566 63.3959 47.1217 64.0898 47.4119L68.7932 49.3822H68.8857L71.0601 49.428Z" fill="black"/>
<path d="M61.2987 58.5794H65.2002L62.5016 49.4307H36.8564L32.9703 58.5794H36.8719L33.1862 67.4379H33.2325V67.4532C33.325 67.4532 33.4175 67.4532 33.4947 67.4532H62.0698H64.7222L61.2987 58.5794Z" fill="#00BEDD"/>
<path d="M33.1706 67.437L16.7472 65.2529L11.7354 75.3791H15.0663C14.7579 75.7915 14.4032 76.265 14.0793 76.7537L18.6902 81.0455L24.6736 75.4402L30.5027 81.183L36.4861 75.5777L42.4694 81.183L48.2986 75.4402L48.4836 75.6235L54.2665 81.0302L60.2498 75.4249L62.5321 77.6548L61.8228 76.0664H65.3696L62.1775 67.4523H48.4373H33.2631H33.2168" fill="#FFE001"/>
<path d="M62.0233 85.2004L66.0636 85.4601L65.2308 83.6731L60.1881 78.6787L54.2356 84.6048L48.2523 78.6787L42.2998 84.62L36.4552 78.8314L30.4719 84.4367L24.689 78.7398L18.7365 84.6658L12.784 78.7704C12.3984 79.4118 10.0699 83.4287 9.25256 84.956L13.8018 85.2157L9.76146 93.8298L66.3874 94.0742L62.0233 85.2004Z" fill="#FFE001"/>
<path d="M62.5166 77.6247L60.2343 75.3643L54.2509 80.9696L48.2676 75.3643L42.4539 81.107L36.4705 75.5017L30.5026 81.107L24.6734 75.3643L18.6901 80.9696L14.0792 76.6778C13.6629 77.3192 13.1848 77.976 12.7684 78.7091L18.7209 84.6046L24.6734 78.6786L30.4563 84.3755L36.4397 78.7702L42.2842 84.5588L48.2676 78.6327L54.2509 84.5588L60.2034 78.6327L65.2461 83.6271L62.5166 77.6247Z" fill="black"/>
<path d="M26.9711 112.02C26.8786 117.304 27.0328 122.711 21.3733 124.452C21.7126 124.498 22.0672 124.544 22.4219 124.559C22.7149 124.574 23.0542 124.559 23.3318 124.498C23.5939 124.437 23.8715 124.36 24.1182 124.299C24.4729 124.192 24.8584 124.085 25.1669 123.963C25.3828 123.872 25.5832 123.78 25.8145 123.704C25.9533 123.643 26.0767 123.566 26.2001 123.505C26.3234 123.444 26.4468 123.368 26.5547 123.306C26.7398 123.2 26.9094 123.093 27.0945 122.97C27.2024 122.909 27.295 122.818 27.4029 122.757C27.6188 122.573 27.8501 122.405 28.0506 122.207C28.2511 122.008 28.4515 121.794 28.652 121.565C28.7137 121.474 28.7908 121.413 28.8525 121.321C28.945 121.214 29.0067 121.107 29.0684 120.985C29.2072 120.771 29.3305 120.527 29.4539 120.298C29.5156 120.191 29.5618 120.053 29.6389 119.946C29.6544 119.885 29.7006 119.809 29.7315 119.748C29.7777 119.656 29.7932 119.549 29.8394 119.458C29.8548 119.412 29.8857 119.366 29.8857 119.305C29.9474 119.106 30.0245 118.908 30.0707 118.679C30.0707 118.633 30.0862 118.587 30.0862 118.572C30.1324 118.434 30.1478 118.312 30.1787 118.175C30.1787 118.159 30.1941 118.114 30.1941 118.083C30.2095 117.93 30.2558 117.778 30.2866 117.594C30.3021 117.503 30.3021 117.411 30.3329 117.335C30.3483 117.243 30.3483 117.136 30.3792 117.044C30.4408 116.586 30.4871 116.159 30.5179 115.67C30.5642 115.089 30.5796 114.54 30.5796 113.975C30.5951 113.348 30.5951 112.753 30.6259 112.142L26.9711 112.02Z" fill="#580098"/>
<path d="M13.5398 112.005C13.5243 113.532 13.6014 114.907 13.8019 116.144C13.8636 116.633 13.9561 117.076 14.0641 117.519C14.1257 117.809 14.2183 118.099 14.28 118.359C15.4365 122.024 17.8422 123.949 21.3119 124.483C26.9714 122.742 26.8172 117.32 26.9098 112.051H13.5398V112.005Z" fill="#8000DB"/>
<path d="M84.5687 40.374C83.2116 43.78 78.7087 46.5444 70.9982 47.2165V48.698V49.4311C71.5379 49.4158 72.0005 49.37 72.5094 49.3395C73.1108 49.2936 73.666 49.2325 74.2212 49.1409C74.7301 49.0798 75.2081 48.9882 75.6707 48.8965C77.7526 48.4841 79.4643 47.8427 80.8522 47.0332C81.1452 46.8499 81.4536 46.6819 81.7003 46.4833C81.8391 46.3917 81.9471 46.3001 82.0859 46.1932C82.4406 45.903 82.7952 45.5669 83.0882 45.2615C83.2887 45.0629 83.4429 44.8491 83.628 44.6047C84.0135 44.0243 84.3219 43.4592 84.4916 42.8636C84.7229 42.0694 84.7537 41.2293 84.5687 40.374Z" fill="#98005E"/>
<path d="M72.7101 31.2721C72.1704 31.1346 71.6461 30.9819 71.0601 30.875V35.5181V40.1612V47.248C78.7397 46.5607 83.2427 43.7809 84.6305 40.4055C83.9212 36.908 79.958 33.2729 72.7101 31.2721Z" fill="#FF009E"/>
</svg>
